<svg xmlns="http://www.w3.org/2000/svg" version="1.1" viewBox="3.0999999046325684 0.9150000810623169 448.6028137207031 326.513427734375" width="75.67" height="54.83">
<g stroke-width="2.00" fill="none" stroke-linecap="butt">
<path stroke="#6299bd" d="&#10;  M 241.93 37.95&#10;  Q 227.55 38.92 213.37 36.44"/>
<path stroke="#487996" d="&#10;  M 267.03 85.75&#10;  Q 251.86 88.53 236.52 89.26"/>
<path stroke="#447390" d="&#10;  M 201.57 111.70&#10;  L 173.91 105.69"/>
<path stroke="#2f566b" d="&#10;  M 309.49 138.43&#10;  Q 314.04 144.52 319.72 149.69&#10;  C 321.04 150.89 321.80 152.59 322.21 154.19&#10;  A 2.43 2.42 66.8 0 1 321.15 156.85&#10;  Q 319.44 157.91 317.07 158.15&#10;  Q 308.39 159.01 299.35 158.29"/>
<path stroke="#2b5065" d="&#10;  M 133.27 149.70&#10;  Q 131.09 153.54 127.52 156.32&#10;  Q 127.13 156.63 127.62 156.71&#10;  Q 143.00 159.38 158.33 155.41"/>
<path stroke="#37627b" d="&#10;  M 148.21 267.73&#10;  Q 139.94 267.27 131.89 264.18"/>
<path stroke="#274a5f" d="&#10;  M 182.28 299.14&#10;  Q 179.37 304.26 173.70 304.42&#10;  Q 170.00 304.54 166.80 304.10"/>
<path stroke="#274a5f" d="&#10;  M 101.35 284.92&#10;  Q 93.93 288.22 85.68 288.19"/>
<path stroke="#274a5f" d="&#10;  M 70.64 294.69&#10;  Q 62.19 295.23 53.89 293.75"/>
<path stroke="#274a5f" d="&#10;  M 396.27 281.73&#10;  Q 388.85 285.56 380.44 285.44"/>
<path stroke="#274a5f" d="&#10;  M 366.48 295.93&#10;  Q 358.15 295.83 350.15 293.69"/>
<path stroke="#2f566b" d="&#10;  M 322.88 262.98&#10;  Q 315.60 267.27 307.62 269.23"/>
<path stroke="#2b5065" d="&#10;  M 284.42 271.71&#10;  L 284.18 275.11&#10;  Q 284.14 275.62 283.65 275.75&#10;  Q 275.98 277.77 268.17 276.28"/>
<path stroke="#2b5065" d="&#10;  M 233.20 266.03&#10;  L 233.12 267.79"/>
<path stroke="#2b5065" d="&#10;  M 233.34 281.03&#10;  L 233.05 283.09&#10;  Q 232.98 283.57 232.51 283.70&#10;  Q 225.10 285.74 217.29 285.16"/>
<path stroke="#3c677f" d="&#10;  M 130.4039 178.2574&#10;  A 0.83 0.49 -11.3 0 0 129.4940 177.9395&#10;  A 0.83 0.49 -11.3 0 0 128.7761 178.5826&#10;  A 0.83 0.49 -11.3 0 0 129.6860 178.9005&#10;  A 0.83 0.49 -11.3 0 0 130.4039 178.2574"/>
</g>
<path fill="#6fa7d0" d="&#10;  M 241.93 37.95&#10;  Q 227.55 38.92 213.37 36.44&#10;  L 226.74 1.63&#10;  Q 227.29 0.20 227.85 1.63&#10;  L 241.93 37.95&#10;  Z"/>
<path fill="#558aaa" d="&#10;  M 213.37 36.44&#10;  Q 227.55 38.92 241.93 37.95&#10;  Q 252.37 63.04 267.03 85.75&#10;  Q 251.86 88.53 236.52 89.26&#10;  L 228.36 75.56&#10;  A 1.25 1.24 43.8 0 0 226.19 75.60&#10;  Q 215.77 94.91 201.57 111.70&#10;  L 173.91 105.69&#10;  Q 178.69 99.16 183.26 92.51&#10;  Q 201.41 66.13 213.37 36.44&#10;  Z"/>
<path fill="#3b6881" d="&#10;  M 309.49 138.43&#10;  Q 314.04 144.52 319.72 149.69&#10;  C 321.04 150.89 321.80 152.59 322.21 154.19&#10;  A 2.43 2.42 66.8 0 1 321.15 156.85&#10;  Q 319.44 157.91 317.07 158.15&#10;  Q 308.39 159.01 299.35 158.29&#10;  C 275.31 138.34 253.78 115.46 236.52 89.26&#10;  Q 251.86 88.53 267.03 85.75&#10;  Q 285.67 114.17 309.49 138.43&#10;  Z"/>
<path fill="#224354" d="&#10;  M 299.35 158.29&#10;  Q 308.39 159.01 317.07 158.15&#10;  Q 319.44 157.91 321.15 156.85&#10;  A 2.43 2.42 66.8 0 0 322.21 154.19&#10;  C 321.80 152.59 321.04 150.89 319.72 149.69&#10;  Q 314.04 144.52 309.49 138.43&#10;  Q 338.90 167.00 371.91 189.58&#10;  Q 386.80 199.78 403.39 209.88&#10;  Q 429.42 225.75 451.53 237.78&#10;  Q 451.89 237.98 451.50 237.90&#10;  Q 451.45 237.89 451.42 237.90&#10;  Q 451.36 237.92 451.28 237.88&#10;  C 430.50 227.90 419.18 223.41 396.66 214.25&#10;  Q 353.87 196.86 316.84 188.49&#10;  Q 280.47 180.26 244.02 178.22&#10;  Q 237.66 177.86 234.05 182.02&#10;  C 232.73 183.53 231.17 187.27 230.84 189.72&#10;  Q 230.30 193.71 229.13 203.25&#10;  C 228.10 211.74 228.24 220.18 227.51 227.37&#10;  Q 227.30 229.44 227.00 227.38&#10;  Q 226.52 224.11 226.44 221.25&#10;  Q 226.23 213.69 224.98 201.27&#10;  Q 224.11 192.64 222.53 186.34&#10;  C 220.74 179.24 214.74 177.99 208.37 178.37&#10;  Q 179.99 180.10 156.56 184.60&#10;  Q 143.86 187.05 121.68 192.43&#10;  Q 107.85 195.78 83.27 204.62&#10;  Q 50.34 216.46 34.57 223.58&#10;  Q 6.86 236.11 3.51 237.60&#10;  Q 3.42 237.64 3.31 237.63&#10;  Q 3.26 237.62 3.20 237.63&#10;  Q 3.00 237.66 3.20 237.56&#10;  Q 19.30 229.23 24.70 225.94&#10;  C 43.98 214.19 66.22 201.19 82.38 189.64&#10;  Q 94.64 180.88 106.72 172.22&#10;  Q 114.72 166.48 133.27 149.70&#10;  Q 131.09 153.54 127.52 156.32&#10;  Q 127.13 156.63 127.62 156.71&#10;  Q 143.00 159.38 158.33 155.41&#10;  Q 145.47 167.23 131.00 176.55&#10;  Q 130.54 176.85 130.71 177.37&#10;  Q 130.94 178.08 131.97 177.82&#10;  Q 155.15 171.98 174.94 168.69&#10;  Q 187.40 166.62 210.51 163.72&#10;  C 216.36 162.98 220.77 156.40 222.02 151.05&#10;  Q 223.90 142.98 224.65 134.51&#10;  Q 226.35 115.11 226.88 98.41&#10;  A 0.12 0.11 21.5 0 1 227.07 98.33&#10;  L 227.44 98.63&#10;  Q 227.59 98.75 227.59 98.95&#10;  Q 227.77 117.69 229.95 138.01&#10;  C 230.97 147.43 231.89 157.25 240.10 162.30&#10;  Q 242.42 163.72 247.60 164.36&#10;  Q 283.73 168.82 299.33 172.40&#10;  Q 315.12 176.02 322.25 177.44&#10;  Q 322.70 177.53 323.58 177.24&#10;  Q 324.23 177.03 323.60 176.77&#10;  C 322.84 176.45 321.36 175.71 320.67 175.20&#10;  Q 309.78 167.20 299.35 158.29&#10;  Z&#10;  M 130.4039 178.2574&#10;  A 0.83 0.49 -11.3 0 0 129.4940 177.9395&#10;  A 0.83 0.49 -11.3 0 0 128.7761 178.5826&#10;  A 0.83 0.49 -11.3 0 0 129.6860 178.9005&#10;  A 0.83 0.49 -11.3 0 0 130.4039 178.2574&#10;  Z"/>
<path fill="#335c75" d="&#10;  M 173.91 105.69&#10;  L 201.57 111.70&#10;  Q 194.99 120.04 193.07 122.07&#10;  Q 178.39 137.55 167.80 147.56&#10;  Q 164.55 150.64 158.33 155.41&#10;  Q 143.00 159.38 127.62 156.71&#10;  Q 127.13 156.63 127.52 156.32&#10;  Q 131.09 153.54 133.27 149.70&#10;  Q 155.62 129.61 173.91 105.69&#10;  Z"/>
<ellipse fill="#558aaa" cx="0.00" cy="0.00" transform="translate(129.59,178.42) rotate(-11.3)" rx="0.83" ry="0.49"/>
<path fill="#3b6881" d="&#10;  M 148.21 267.73&#10;  Q 139.94 267.27 131.89 264.18&#10;  C 134.31 253.38 143.83 248.56 154.28 248.01&#10;  C 161.86 247.62 170.38 247.48 177.49 249.66&#10;  C 179.17 250.17 179.75 251.50 179.80 253.00&#10;  C 179.87 255.73 180.51 261.92 178.73 265.06&#10;  A 1.19 1.16 7.4 0 1 177.97 265.63&#10;  Q 175.91 266.11 174.92 265.93&#10;  Q 169.41 264.90 159.00 264.48&#10;  Q 151.92 264.19 148.21 267.73&#10;  Z"/>
<path fill="#335c75" d="&#10;  M 101.35 284.92&#10;  Q 93.93 288.22 85.68 288.19&#10;  L 80.87 276.80&#10;  Q 79.18 272.82 77.61 276.85&#10;  L 70.64 294.69&#10;  Q 62.19 295.23 53.89 293.75&#10;  C 56.91 286.50 59.93 277.86 62.53 271.86&#10;  Q 66.92 261.76 70.98 251.48&#10;  C 71.89 249.19 73.04 248.26 75.55 248.17&#10;  Q 81.53 247.94 84.99 248.20&#10;  A 3.29 3.28 -8.4 0 1 87.80 250.28&#10;  L 101.35 284.92&#10;  Z"/>
<path fill="#335c75" d="&#10;  M 396.27 281.73&#10;  Q 388.85 285.56 380.44 285.44&#10;  L 376.64 275.18&#10;  A 0.97 0.96 -44.3 0 0 374.84 275.16&#10;  L 366.48 295.93&#10;  Q 358.15 295.83 350.15 293.69"/>
<path fill="#3b6881" d="&#10;  M 322.88 262.98&#10;  Q 315.60 267.27 307.62 269.23&#10;  C 305.48 265.55 300.72 264.89 296.79 264.92&#10;  Q 290.99 264.95 285.21 265.33&#10;  Q 284.64 265.37 284.62 265.94&#10;  L 284.42 271.71&#10;  L 284.18 275.11&#10;  Q 284.14 275.62 283.65 275.75&#10;  Q 275.98 277.77 268.17 276.28&#10;  L 268.24 252.21&#10;  A 3.19 3.19 0.0 0 1 271.35 249.03&#10;  Q 280.29 248.78 289.26 248.84&#10;  C 301.35 248.92 318.13 248.51 322.88 262.98&#10;  Z"/>
<path fill="#3b6881" d="&#10;  M 233.20 266.03&#10;  L 233.12 267.79&#10;  L 233.34 281.03&#10;  L 233.05 283.09&#10;  Q 232.98 283.57 232.51 283.70&#10;  Q 225.10 285.74 217.29 285.16&#10;  L 217.37 266.76&#10;  A 1.57 1.56 0.2 0 0 215.80 265.19&#10;  L 197.80 265.19&#10;  Q 196.43 265.19 195.97 263.90&#10;  Q 195.50 262.59 195.47 260.53&#10;  Q 195.39 253.95 195.39 251.27&#10;  A 1.58 1.58 0.0 0 1 196.37 249.81&#10;  Q 198.11 249.08 201.03 249.06&#10;  Q 228.31 248.92 251.58 248.98&#10;  Q 255.06 248.99 255.06 252.47&#10;  L 255.06 262.38&#10;  A 2.93 2.93 0.0 0 1 252.14 265.31&#10;  Q 244.97 265.34 235.00 265.21&#10;  Q 233.75 265.19 233.20 266.03&#10;  Z"/>
<path fill="#224354" d="&#10;  M 307.62 269.23&#10;  Q 315.60 267.27 322.88 262.98&#10;  C 326.04 273.88 324.95 289.03 313.27 294.37&#10;  Q 311.27 295.28 312.33 297.20&#10;  Q 315.10 302.19 322.91 315.07&#10;  Q 323.73 316.42 325.88 320.91&#10;  C 327.31 323.90 325.87 325.42 322.88 325.56&#10;  Q 318.26 325.79 311.53 325.53&#10;  A 2.90 2.89 -12.8 0 1 309.07 323.99&#10;  Q 302.65 311.95 292.60 293.90&#10;  C 290.98 290.98 288.37 285.21 294.13 284.41&#10;  C 297.06 284.00 299.96 283.93 302.71 282.62&#10;  Q 310.59 278.84 307.62 269.23&#10;  Z"/>
<path fill="#335c75" d="&#10;  M 131.89 264.18&#10;  Q 139.94 267.27 148.21 267.73&#10;  C 146.80 273.19 150.35 276.00 154.88 277.71&#10;  Q 161.76 280.32 168.61 282.97&#10;  C 175.53 285.64 181.29 290.88 182.28 299.14&#10;  Q 179.37 304.26 173.70 304.42&#10;  Q 170.00 304.54 166.80 304.10&#10;  Q 166.21 301.45 165.49 300.74&#10;  Q 163.69 298.94 160.16 297.60&#10;  Q 156.09 296.07 147.64 293.20&#10;  C 134.18 288.63 128.78 278.30 131.89 264.18&#10;  Z"/>
<path fill="#1a3848" d="&#10;  M 233.20 266.03&#10;  L 233.12 267.79&#10;  L 233.20 266.03&#10;  Z"/>
<path fill="#1a3848" d="&#10;  M 284.42 271.71&#10;  L 284.51 322.89&#10;  Q 284.51 325.75 281.65 325.75&#10;  L 271.00 325.75&#10;  Q 268.17 325.75 268.17 322.93&#10;  L 268.17 276.28&#10;  Q 275.98 277.77 283.65 275.75&#10;  Q 284.14 275.62 284.18 275.11&#10;  L 284.42 271.71&#10;  Z"/>
<path fill="#1a3848" d="&#10;  M 217.29 285.16&#10;  Q 225.10 285.74 232.51 283.70&#10;  Q 232.98 283.57 233.05 283.09&#10;  L 233.34 281.03&#10;  L 233.32 323.33&#10;  A 2.34 2.33 -89.9 0 1 230.99 325.66&#10;  L 219.00 325.66&#10;  A 1.89 1.89 0.0 0 1 217.11 323.76&#10;  L 217.29 285.16&#10;  Z"/>
<path fill="#1a3848" d="&#10;  M 396.27 281.73&#10;  Q 403.41 300.53 410.87 319.10&#10;  C 411.72 321.21 413.30 325.03 409.81 325.48&#10;  Q 405.02 326.09 397.41 325.54&#10;  Q 395.57 325.41 394.91 323.68&#10;  L 380.44 285.44&#10;  Q 388.85 285.56 396.27 281.73&#10;  Z"/>
<path fill="#1a3848" d="&#10;  M 85.68 288.19&#10;  Q 93.93 288.22 101.35 284.92&#10;  Q 107.86 300.84 114.18 316.75&#10;  Q 115.34 319.68 115.87 322.73&#10;  A 2.68 2.67 -5.1 0 1 113.25 325.86&#10;  C 110.64 325.88 104.11 326.33 100.48 325.25&#10;  Q 99.96 325.09 99.76 324.59&#10;  L 85.68 288.19&#10;  Z"/>
<path fill="#1a3848" d="&#10;  M 53.89 293.75&#10;  Q 62.19 295.23 70.64 294.69&#10;  L 59.93 323.58&#10;  A 3.42 3.41 10.0 0 1 56.72 325.82&#10;  L 45.86 325.82&#10;  Q 41.24 325.82 42.94 321.52&#10;  L 53.89 293.75&#10;  Z"/>
<path fill="#1a3848" d="&#10;  M 350.15 293.69&#10;  Q 358.15 295.83 366.48 295.93&#10;  L 355.99 323.88&#10;  A 2.80 2.79 10.3 0 1 353.37 325.69&#10;  L 340.99 325.69&#10;  Q 339.65 325.69 339.26 324.41&#10;  Q 338.82 322.95 339.55 321.07&#10;  Q 344.85 307.38 350.15 293.69&#10;  Z"/>
<path fill="#1a3848" d="&#10;  M 166.80 304.10&#10;  Q 170.00 304.54 173.70 304.42&#10;  Q 179.37 304.26 182.28 299.14&#10;  Q 183.60 306.31 181.57 312.83&#10;  C 178.21 323.57 166.40 326.94 155.75 327.38&#10;  Q 147.58 327.73 134.99 325.55&#10;  C 132.26 325.08 129.83 324.33 129.84 321.31&#10;  Q 129.86 313.99 129.96 312.52&#10;  Q 130.24 308.20 134.90 309.06&#10;  Q 149.05 311.66 156.12 311.46&#10;  Q 164.98 311.21 166.80 304.10&#10;  Z"/>
</svg>